name pl02_filtered_grf.mot
datacolumns 37
datarows 14
range 0.995000 1.001500
endheader
time	1_ground_force_vx	1_ground_force_vy	1_ground_force_vz	1_ground_force_px	1_ground_force_py	1_ground_force_pz	1_ground_torque_x	1_ground_torque_y	1_ground_torque_z	2_ground_force_vx	2_ground_force_vy	2_ground_force_vz	2_ground_force_px	2_ground_force_py	2_ground_force_pz	2_ground_torque_x	2_ground_torque_y	2_ground_torque_z	3_ground_force_vx	3_ground_force_vy	3_ground_force_vz	3_ground_force_px	3_ground_force_py	3_ground_force_pz	3_ground_torque_x	3_ground_torque_y	3_ground_torque_z	4_ground_force_vx	4_ground_force_vy	4_ground_force_vz	4_ground_force_px	4_ground_force_py	4_ground_force_pz	4_ground_torque_x	4_ground_torque_y	4_ground_torque_z
            0.995000	          -24.605174	          586.158023	          103.675691	            0.130377	            0.000000	            0.261443	           -0.345490	            8.230446	            1.455746	           21.496848	          564.906963	           90.411712	           -0.109297	            0.000000	            0.261673	           -0.117890	           -3.097986	           -0.495824	           22.279202	            0.362485	            0.471102	            0.375078	            1.311096	            1.913400	           -0.102441	           -0.001667	           -0.002166	          -19.110279	           -0.296355	            1.431414	           -0.265722	            1.310127	            1.923941	            0.012097	            0.000188	           -0.000906
            0.995500	          -24.324409	          583.491493	          102.715407	            0.130383	            0.000000	            0.261322	           -0.342739	            8.221586	            1.447294	           21.334972	          562.551449	           89.265532	           -0.109281	            0.000000	            0.261625	           -0.117562	           -3.099824	           -0.491879	           22.279588	            0.376837	            0.452409	            0.375076	            1.311092	            1.913403	           -0.102264	           -0.001730	           -0.002077	          -19.079220	           -0.306478	            1.432928	           -0.265726	            1.310128	            1.923945	            0.011753	            0.000189	           -0.000883
            0.996000	          -24.047315	          580.820318	          101.755624	            0.130389	            0.000000	            0.261201	           -0.340009	            8.212318	            1.438740	           21.178431	          560.195003	           88.116117	           -0.109268	            0.000000	            0.261580	           -0.117270	           -3.101932	           -0.487920	           22.279254	            0.393584	            0.433725	            0.375075	            1.311088	            1.913406	           -0.102080	           -0.001803	           -0.001987	          -19.046992	           -0.318001	            1.434713	           -0.265730	            1.310130	            1.923950	            0.011395	            0.000190	           -0.000858
            0.996500	          -23.774094	          578.145005	          100.796555	            0.130397	            0.000000	            0.261079	           -0.337304	            8.202660	            1.430091	           21.027758	          557.837875	           86.964051	           -0.109258	            0.000000	            0.261537	           -0.117012	           -3.104177	           -0.483925	           22.278148	            0.412584	            0.415237	            0.375073	            1.311083	            1.913409	           -0.101890	           -0.001887	           -0.001899	          -19.013827	           -0.330871	            1.436773	           -0.265734	            1.310131	            1.923954	            0.011026	            0.000192	           -0.000833
            0.997000	          -23.504944	          575.466074	           99.838436	            0.130406	            0.000000	            0.260956	           -0.334628	            8.192629	            1.421351	           20.883436	          555.480295	           85.809956	           -0.109251	            0.000000	            0.261496	           -0.116787	           -3.106433	           -0.479878	           22.276220	            0.433674	            0.397128	            0.375071	            1.311079	            1.913412	           -0.101698	           -0.001980	           -0.001813	          -18.979968	           -0.345023	            1.439118	           -0.265738	            1.310132	            1.923958	            0.010649	            0.000194	           -0.000807
            0.997500	          -23.240053	          572.784053	           98.881525	            0.130415	            0.000000	            0.260833	           -0.331985	            8.182240	            1.412526	           20.745890	          553.122471	           84.654475	           -0.109248	            0.000000	            0.261458	           -0.116593	           -3.108576	           -0.475762	           22.273431	            0.456667	            0.379583	            0.375069	            1.311075	            1.913415	           -0.101504	           -0.002081	           -0.001730	          -18.945664	           -0.360378	            1.441762	           -0.265742	            1.310134	            1.923963	            0.010267	            0.000195	           -0.000781
            0.998000	          -22.979599	          570.099474	           97.926095	            0.130426	            0.000000	            0.260710	           -0.329377	            8.171506	            1.403621	           20.615484	          550.764584	           83.498272	           -0.109248	            0.000000	            0.261421	           -0.116428	           -3.110492	           -0.471564	           22.269752	            0.481359	            0.362339	            0.375068	            1.311071	            1.913416	           -0.101312	           -0.002190	           -0.001648	          -18.911157	           -0.376839	            1.444827	           -0.265745	            1.310135	            1.923966	            0.009883	            0.000197	           -0.000755
            0.998500	          -22.723754	          567.412875	           96.972434	            0.130437	            0.000000	            0.260587	           -0.326809	            8.160433	            1.394641	           20.492511	          548.406787	           82.342022	           -0.109252	            0.000000	            0.261387	           -0.116290	           -3.112078	           -0.467271	           22.265148	            0.507521	            0.346002	            0.375068	            1.311068	            1.913416	           -0.101123	           -0.002305	           -0.001571	          -18.876710	           -0.394309	            1.448225	           -0.265748	            1.310136	            1.923970	            0.009498	            0.000198	           -0.000729
            0.999000	          -22.472680	          564.724792	           96.020837	            0.130450	            0.000000	            0.260463	           -0.324283	            8.149022	            1.385588	           20.377190	          546.049207	           81.186404	           -0.109260	            0.000000	            0.261355	           -0.116178	           -3.113241	           -0.462876	           22.259596	            0.534909	            0.330730	            0.375067	            1.311064	            1.913417	           -0.100942	           -0.002426	           -0.001500	          -18.842571	           -0.412676	            1.451979	           -0.265751	            1.310137	            1.923974	            0.009115	            0.000200	           -0.000702
            0.999500	          -22.226533	          562.035763	           95.071605	            0.130462	            0.000000	            0.260339	           -0.321800	            8.137269	            1.376466	           20.269666	          543.691942	           80.032095	           -0.109271	            0.000000	            0.261325	           -0.116091	           -3.113901	           -0.458370	           22.253083	            0.563267	            0.316670	            0.375066	            1.311061	            1.913418	           -0.100770	           -0.002551	           -0.001434	          -18.808986	           -0.431821	            1.456111	           -0.265755	            1.310138	            1.923978	            0.008736	            0.000201	           -0.000676
            1.000000	          -21.985459	          559.346324	           94.125041	            0.130476	            0.000000	            0.260215	           -0.319365	            8.125160	            1.367276	           20.170003	          541.335063	           78.879769	           -0.109286	            0.000000	            0.261297	           -0.116027	           -3.113995	           -0.453751	           22.245599	            0.592324	            0.303954	            0.375065	            1.311057	            1.913419	           -0.100610	           -0.002679	           -0.001375	          -18.776190	           -0.451615	            1.460646	           -0.265758	            1.310139	            1.923982	            0.008362	            0.000201	           -0.000650
            1.000500	          -21.749600	          556.657005	           93.181446	            0.130490	            0.000000	            0.260091	           -0.316977	            8.112679	            1.358020	           20.078189	          538.978614	           77.730088	           -0.109305	            0.000000	            0.261271	           -0.115984	           -3.113470	           -0.449016	           22.237149	            0.621801	            0.292251	            0.375065	            1.311055	            1.913419	           -0.100465	           -0.002809	           -0.001320	          -18.744395	           -0.471913	            1.465777	           -0.265760	            1.310139	            1.923985	            0.007993	            0.000201	           -0.000625
            1.001000	          -21.519089	          553.968333	           92.241115	            0.130505	            0.000000	            0.259966	           -0.314640	            8.099800	            1.348696	           19.994134	          536.622618	           76.583703	           -0.109327	            0.000000	            0.261246	           -0.115962	           -3.112292	           -0.444168	           22.227729	            0.651411	            0.282113	            0.375066	            1.311052	            1.913418	           -0.100337	           -0.002940	           -0.001273	          -18.713826	           -0.492588	            1.471357	           -0.265762	            1.310140	            1.923988	            0.007629	            0.000201	           -0.000600
            1.001500	          -21.294054	          551.280832	           91.304340	            0.130520	            0.000000	            0.259842	           -0.312353	            8.086495	            1.339303	           19.917673	          534.267076	           75.441249	           -0.109353	            0.000000	            0.261224	           -0.115958	           -3.110440	           -0.439210	           22.217348	            0.680864	            0.273623	            0.375066	            1.311050	            1.913417	           -0.100229	           -0.003072	           -0.001234	          -18.684679	           -0.513501	            1.477407	           -0.265765	            1.310140	            1.923992	            0.007272	            0.000200	           -0.000575
